<svg width="43" height="50" viewBox="0 0 43 50" fill="none" xmlns="http://www.w3.org/2000/svg">
<path fill-rule="evenodd" clip-rule="evenodd" d="M11.4448 0C5.124 0 0 5.124 0 11.4448V16.1658C0 19.8792 3.01035 22.8896 6.72381 22.8896C7.02694 22.8896 7.32539 22.8695 7.6179 22.8306L7.6179 10.8541L27.4674 24.6063L7.6179 38.3585L7.6179 26.525C7.32539 26.4861 7.02694 26.4661 6.72381 26.4661C3.01035 26.4661 0 29.4764 0 33.1899V37.9108C0 44.2316 5.124 49.3556 11.4448 49.3556C12.7373 49.3556 13.9994 48.9636 15.0645 48.2312L39.1073 31.699C43.9745 28.3522 43.9871 21.1696 39.1316 17.8058L15.0606 1.13011C13.9984 0.394254 12.737 0 11.4448 0Z" fill="#8401FF"/>
<path fill-rule="evenodd" clip-rule="evenodd" d="M13.5906 14.9921V0.373535C14.1086 0.559532 14.6031 0.813124 15.0607 1.1301L39.1317 17.8058C43.9872 21.1696 43.9747 28.3522 39.1074 31.699L15.0646 48.2312C14.6054 48.5469 14.1096 48.7994 13.5906 48.9845V34.2206L27.4675 24.6064L13.5906 14.9921Z" fill="#8401FF"/>
<path fill-rule="evenodd" clip-rule="evenodd" d="M33.8858 27.9271C36.2147 26.3393 36.2147 22.9051 33.8858 21.3172L13.5492 7.452C10.8939 5.64169 7.2959 7.54332 7.2959 10.757V38.4874C7.2959 41.701 10.8939 43.6026 13.5492 41.7923L33.8858 27.9271ZM7.29617 38.3743L27.1457 24.6222L7.29617 10.87L7.29617 38.3743Z" fill="white"/>
<path fill-rule="evenodd" clip-rule="evenodd" d="M13.8408 7.65079V16.0385C13.8408 19.6922 10.9267 22.6652 7.2959 22.76V10.7569C7.2959 7.54326 10.8939 5.64163 13.5492 7.45194L13.8408 7.65079Z" fill="#E2E2E2"/>
<path fill-rule="evenodd" clip-rule="evenodd" d="M13.8408 41.5912V33.2035C13.8408 29.5498 10.9267 26.5768 7.2959 26.482V38.4851C7.2959 41.6987 10.8939 43.6004 13.5492 41.7901L13.8408 41.5912Z" fill="#E2E2E2"/>
</svg>
